<?xml version="1.0" encoding="UTF-8"?>
<svg width="133px" height="117px" viewBox="0 0 133 117" version="1.1" xmlns="http://www.w3.org/2000/svg" xmlns:xlink="http://www.w3.org/1999/xlink">
    <title>dot-pattern</title>
    <g id="Page-2" stroke="none" stroke-width="1" fill="none" fill-rule="evenodd">
        <g id="dot-pattern" fill="#F4C663" fill-rule="nonzero">
            <ellipse id="Oval" cx="2.14351897" cy="1.87158" rx="2.14351897" ry="1.87158"></ellipse>
            <ellipse id="Oval" cx="2.14351897" cy="24.3306" rx="2.14351897" ry="1.87158"></ellipse>
            <ellipse id="Oval" cx="2.14351897" cy="46.7896" rx="2.14351897" ry="1.87158"></ellipse>
            <ellipse id="Oval" cx="2.14351897" cy="69.2486" rx="2.14351897" ry="1.87158"></ellipse>
            <ellipse id="Oval" cx="2.14351897" cy="91.7076" rx="2.14351897" ry="1.87158"></ellipse>
            <ellipse id="Oval" cx="2.14351897" cy="114.167" rx="2.14351897" ry="1.87158"></ellipse>
            <ellipse id="Oval" cx="27.8658154" cy="1.87158" rx="2.14351897" ry="1.87158"></ellipse>
            <ellipse id="Oval" cx="27.8658154" cy="24.3306" rx="2.14351897" ry="1.87158"></ellipse>
            <ellipse id="Oval" cx="27.8658154" cy="46.7896" rx="2.14351897" ry="1.87158"></ellipse>
            <ellipse id="Oval" cx="27.8658154" cy="69.2486" rx="2.14351897" ry="1.87158"></ellipse>
            <ellipse id="Oval" cx="27.8658154" cy="91.7076" rx="2.14351897" ry="1.87158"></ellipse>
            <ellipse id="Oval" cx="27.8658154" cy="114.167" rx="2.14351897" ry="1.87158"></ellipse>
            <ellipse id="Oval" cx="53.5880889" cy="1.8717" rx="2.14351897" ry="1.87158"></ellipse>
            <ellipse id="Oval" cx="53.5880889" cy="46.7897" rx="2.14351897" ry="1.87158"></ellipse>
            <ellipse id="Oval" cx="53.5880889" cy="69.2487" rx="2.14351897" ry="1.87158"></ellipse>
            <ellipse id="Oval" cx="53.5880889" cy="91.7078" rx="2.14351897" ry="1.87158"></ellipse>
            <ellipse id="Oval" cx="53.5880889" cy="114.167" rx="2.14351897" ry="1.87158"></ellipse>
            <ellipse id="Oval" cx="79.3102479" cy="1.8717" rx="2.14351897" ry="1.87158"></ellipse>
            <ellipse id="Oval" cx="79.3125385" cy="24.3307" rx="2.14351897" ry="1.87158"></ellipse>
            <ellipse id="Oval" cx="52.887853" cy="24.3307" rx="2.14351897" ry="1.87158"></ellipse>
            <ellipse id="Oval" cx="79.3102479" cy="46.7897" rx="2.14351897" ry="1.87158"></ellipse>
            <ellipse id="Oval" cx="79.3102479" cy="69.2487" rx="2.14351897" ry="1.87158"></ellipse>
            <ellipse id="Oval" cx="79.3102479" cy="91.7078" rx="2.14351897" ry="1.87158"></ellipse>
            <ellipse id="Oval" cx="79.3102479" cy="114.167" rx="2.14351897" ry="1.87158"></ellipse>
            <ellipse id="Oval" cx="105.034812" cy="1.8717" rx="2.14351897" ry="1.87158"></ellipse>
            <ellipse id="Oval" cx="105.034812" cy="24.3307" rx="2.14351897" ry="1.87158"></ellipse>
            <ellipse id="Oval" cx="105.034812" cy="46.7897" rx="2.14351897" ry="1.87158"></ellipse>
            <ellipse id="Oval" cx="105.034812" cy="69.2487" rx="2.14351897" ry="1.87158"></ellipse>
            <ellipse id="Oval" cx="105.034812" cy="91.7078" rx="2.14351897" ry="1.87158"></ellipse>
            <ellipse id="Oval" cx="105.034812" cy="114.167" rx="2.14351897" ry="1.87158"></ellipse>
            <ellipse id="Oval" cx="130.753077" cy="1.8717" rx="2.14351897" ry="1.87158"></ellipse>
            <ellipse id="Oval" cx="130.753077" cy="24.3307" rx="2.14351897" ry="1.87158"></ellipse>
            <ellipse id="Oval" cx="130.753077" cy="46.7897" rx="2.14351897" ry="1.87158"></ellipse>
            <ellipse id="Oval" cx="130.753077" cy="69.2487" rx="2.14351897" ry="1.87158"></ellipse>
            <ellipse id="Oval" cx="130.753077" cy="91.7078" rx="2.14351897" ry="1.87158"></ellipse>
            <ellipse id="Oval" cx="130.753077" cy="114.167" rx="2.14351897" ry="1.87158"></ellipse>
        </g>
    </g>
</svg>