<?xml version="1.0" encoding="UTF-8"?>
<svg width="200px" height="44px" viewBox="0 0 200 44" version="1.1" xmlns="http://www.w3.org/2000/svg" xmlns:xlink="http://www.w3.org/1999/xlink">
    <title>logo</title>
    <g id="Page-1" stroke="none" stroke-width="1" fill="none" fill-rule="evenodd">
        <g id="Coming-Soon" transform="translate(-255.000000, -38.000000)" fill="#725BF4" fill-rule="nonzero">
            <g id="Group-2" transform="translate(-53.000000, 0.000000)">
                <g id="Group-9" transform="translate(53.000000, 0.000000)">
                    <g id="logo" transform="translate(255.000000, 38.000000)">
                        <path d="M12.7118427,13.9312494 C13.7159998,13.9312494 17.8621502,14.099763 20.2267908,18.4124296 C20.3563619,18.682002 20.6479886,18.8166651 20.9394928,18.8166651 L22.6886404,18.8166651 C23.3041334,18.8166651 23.6928465,18.1428571 23.4012198,17.6038354 C21.3929301,13.5943454 17.6030081,11 12.7442416,11 C4.74337153,11 0.5,17.7722258 0.5,23.4663588 C0.5,29.6995136 4.90532919,36 12.7442416,36 C18.283348,36 21.5225011,32.8665589 23.2716487,29.7331179 C23.5956376,29.1603688 23.2069245,28.4528334 22.5590694,28.4528334 L20.9071307,28.4528334 C20.6479886,28.4528334 20.3888466,28.5876197 20.2267908,28.8234648 C18.54249,31.5862745 15.7242895,33.0687998 12.7118427,33.0687998 C7.72345618,33.0687998 3.57725679,28.8907963 3.57725679,23.4326315 C3.57725679,18.1765845 7.3995286,13.9312494 12.7118427,13.9312494 Z" id="Path"></path>
                        <path d="M36.5909786,11.0072622 C34.0319827,11.2063825 31.8433996,12.6332741 30.6650102,14.889866 L30.5639653,14.889866 L30.5639653,12.3346664 C30.5639653,11.8700725 30.1935525,11.5050388 29.7222222,11.5050388 L28.3417431,11.5050388 C27.8702854,11.5050388 27.5,11.8700725 27.5,12.3346664 L27.5,34.1703724 C27.5,34.6349542 27.8702854,35 28.3417431,35 L29.8905454,35 C30.3618756,35 30.7322885,34.6349542 30.7322885,34.1703724 L30.7322885,21.062305 C30.7322885,16.6487783 33.8972987,14.6244773 36.7929409,14.2262124 C37.1969929,14.1598956 37.5,13.8279475 37.5,13.3965848 L37.5,11.8037192 C37.5,11.3391254 37.095948,10.9408969 36.5909786,11.0072622 Z" id="Path"></path>
                        <path d="M62.698945,11.5735598 L61.3851955,11.5735598 C60.9366483,11.5735598 60.5841405,11.9446795 60.5841405,12.4170316 L60.5841405,15.7233236 L60.4879799,15.7233236 C57.7643203,11.3036479 53.5026981,11 51.5800934,11 C43.4412487,11 39.5,17.6801791 39.5,23.3482315 C39.5,30.7706254 44.8511588,36 51.6442408,36 C56.5787443,36 59.2063647,33.0310671 60.4879799,30.9730162 L60.5841405,30.9730162 L60.5841405,34.5830177 C60.5841405,35.0553451 60.9366483,35.4264772 61.3851955,35.4264772 L62.698945,35.4264772 C63.1476134,35.4264772 63.5,35.0553451 63.5,34.5830177 L63.5,12.3832587 C63.4679869,11.9784154 63.1154791,11.5735598 62.698945,11.5735598 Z M51.6442408,33.1322625 C46.8057766,33.1322625 42.5440332,29.1174794 42.5440332,23.6518178 C42.5440332,15.8582919 50.5868386,10.7975722 57.7964546,16.195651 C57.8604808,16.2631968 57.9246283,16.2968465 57.9886544,16.3643922 C63.8525078,24.3940818 58.8538569,33.1322625 51.6442408,33.1322625 Z" id="Shape"></path>
                        <path d="M91.6668149,3 L90.192886,3 C89.7443411,3 89.3918351,3.37268869 89.3918351,3.84702538 L89.3918351,15.6375989 L89.295675,15.6375989 C86.5720291,11.1991884 82.3744543,10.8942568 80.5160065,10.8942568 C72.4732417,10.8942568 68.5,17.7043507 68.5,23.2946193 C68.5,30.6806855 73.8511318,36 80.6121665,36 C84.2970493,36 87.4692401,34.204326 89.4879951,31.0533866 L89.584034,31.0533866 L89.584034,34.5770271 C89.584034,35.0513514 89.93654,35.4240524 90.3852061,35.4240524 L91.6989491,35.4240524 C92.1474939,35.4240524 92.5,35.0513514 92.5,34.5770271 L92.5,3.81315922 C92.4678658,3.37270107 92.115481,3 91.6668149,3 Z M80.5801536,33.0862228 C75.7417138,33.0862228 71.5440178,29.088258 71.5440178,23.5656971 C71.5440178,15.5697676 79.8111156,10.4876772 87.1808812,16.3830011 C87.2450283,16.4507086 87.3090542,16.51854 87.37308,16.5862475 C92.5960388,24.8870468 87.6615602,33.0862228 80.5801536,33.0862228 Z" id="Shape"></path>
                        <path d="M100.718749,3 L99.2812512,3 C98.8436749,3 98.5,3.36743162 98.5,3.8350774 L98.5,34.1650446 C98.5,34.6326782 98.8436749,35 99.2812512,35 L100.718749,35 C101.156207,35 101.5,34.6326782 101.5,34.1650446 L101.5,3.8350774 C101.5,3.36743162 101.156207,3 100.718749,3 Z" id="Path"></path>
                        <path d="M118.581026,11 C110.690681,11 106.5,17.6374667 106.5,23.5337088 C106.5,30.6765062 111.771092,36 118.581026,36 C123.427016,36 127.38811,33.3045258 129.451051,28.8570796 C129.71248,28.2843313 129.319716,27.6441285 128.697736,27.6441285 L127.191108,27.6441285 C126.897465,27.6441285 126.602582,27.8126418 126.471247,28.0822138 C124.965858,31.1144684 122.051475,33.0349538 118.581026,33.0349538 C114.062877,33.0349538 110.657971,29.8679131 109.904905,25.6225844 C109.806652,25.1171676 110.19954,24.6118739 110.723391,24.6118739 L129.680266,24.6118739 C130.138697,24.6118739 130.531461,24.2075158 130.498008,23.7358263 C130.204365,17.8058569 126.929679,11 118.581026,11 Z M126.046269,21.7142822 L110.788934,21.7142822 C110.232374,21.7142822 109.839486,21.1751381 110.003158,20.6361171 C111.116279,16.6603604 114.488474,13.8975547 118.581026,13.8975547 C122.3134,13.8975547 125.653505,16.4245156 126.864012,20.6361171 C126.995346,21.1751381 126.602582,21.7142822 126.046269,21.7142822 Z" id="Shape"></path>
                        <path d="M144.70295,11.3420334 L141.071005,11.3420334 C140.624849,11.3420334 140.273954,10.9749848 140.273954,10.5078264 L140.273954,3.834207 C140.273954,3.36704864 139.924265,3 139.47811,3 L138.011826,3 C137.565671,3 137.215982,3.36704864 137.215982,3.834207 L137.215982,10.5078264 C137.215982,10.9749848 136.865087,11.3420334 136.418931,11.3420334 L133.295845,11.3420334 C132.850895,11.3420334 132.5,11.709082 132.5,12.176277 L132.5,13.4108253 C132.5,13.8779715 132.850895,14.2450323 133.295845,14.2450323 L136.418931,14.2450323 C136.865087,14.2450323 137.215982,14.6120931 137.215982,15.0792393 L137.215982,34.165793 C137.215982,34.6330611 137.565671,35 138.011826,35 L139.47811,35 C139.924265,35 140.273954,34.6330611 140.273954,34.165793 L140.273954,15.0792393 C140.273954,14.6120931 140.624849,14.2450323 141.071005,14.2450323 L144.70295,14.2450323 C145.149105,14.2450323 145.5,13.8779715 145.5,13.4108253 L145.5,12.176277 C145.5,11.7424479 145.149105,11.3420334 144.70295,11.3420334 Z" id="Path"></path>
                        <path d="M162.099877,11.6003514 C162.587143,11.0618772 163.008131,10.4560861 163.332157,9.78299029 C164.629488,6.9559978 164.078398,2.98475231 161.548788,1.10009886 C159.11614,-0.6836013 155.451212,-0.27974149 153.570881,2.1770472 C151.819423,4.49921784 152.240411,8.53778029 155.322338,9.3454854 C156.748542,9.71568562 158.403038,9.17721145 159.149279,7.79736754 C159.79733,6.55214525 159.538355,4.49921784 158.142835,3.85978668 C156.554618,3.15303856 155.192237,5.57616619 156.781681,6.28291431 C157.105707,6.41753593 156.294415,6.75407153 155.938478,6.6194622 C155.159098,6.35021897 155.095275,5.34058758 155.322338,4.63383946 C155.905339,2.71552137 158.5,2.31166882 159.959343,3.35496483 C161.516876,4.46556551 161.678889,7.05696709 160.900736,8.67238961 C160.316508,9.88395957 159.149279,10.7253293 157.88386,11.0618772 C151.397208,11.3647728 146.5,16.6821852 146.5,23.5477771 C146.5,30.6489475 151.754373,36 158.5,36 C165.245627,36 170.5,30.6489475 170.5,23.5477771 C170.468088,17.7928228 167.030224,13.1485061 162.099877,11.6003514 Z M158.468088,33.1056783 C153.310678,33.1056783 149.5807,28.966208 149.5807,23.5477771 C149.5807,18.1293461 153.310678,13.9561866 158.468088,13.9561866 C163.624271,13.9561866 167.35425,18.1293461 167.35425,23.5477771 C167.35425,28.966208 163.624271,33.1056783 158.468088,33.1056783 Z" id="Shape"></path>
                        <path d="M187.418966,11 C185.331354,11 181.347017,11.5420932 178.520169,15.7094088 L178.422901,15.7094088 L178.422901,12.4229342 C178.422901,11.9486599 178.070304,11.5759593 177.62044,11.5759593 L176.30246,11.5759593 C175.853812,11.5759593 175.5,11.9486599 175.5,12.4229342 L175.5,43.1529756 C175.5,43.6272993 175.853812,44 176.30246,44 L177.780932,44 C178.230796,44 178.584609,43.6272993 178.584609,43.1529756 L178.584609,31.0913873 L178.680661,31.0913873 C179.483121,32.480443 181.796881,36.1396182 187.322914,36.1396182 C194.327419,36.1396182 199.499821,30.8203098 199.499821,23.6714137 C199.531252,17.5729121 195.419252,11 187.418966,11 Z M187.354526,33.1919287 C182.150693,33.1919287 178.455729,29.0246378 178.455729,23.7053293 C178.455729,18.3183134 182.150693,13.9137368 187.451794,13.9137368 C192.527963,13.9137368 196.479472,18.1827746 196.479472,23.6037062 C196.44786,29.0584296 192.367471,33.1919287 187.354526,33.1919287 Z" id="Shape"></path>
                        <path d="M161.397021,27.4403245 C160.186097,28.586906 157.764249,28.586906 156.584684,27.3664169 C155.437683,26.1829491 153.716579,28.1430549 154.896144,29.3265227 C157.158787,31.5825292 160.791559,31.5084865 163.086766,29.4004303 C164.29769,28.2910053 162.576586,26.3308995 161.397021,27.4403245 Z" id="Path"></path>
                    </g>
                </g>
            </g>
        </g>
    </g>
</svg>